<?xml version="1.0" encoding="UTF-8"?>
<svg id="_レイヤー_1" data-name="レイヤー 1" xmlns="http://www.w3.org/2000/svg" viewBox="0 0 512 120">
  <defs>
    <style>
      .cls-1 {
        fill: #61895c;
      }

      .cls-2 {
        fill: #34334d;
        font-family: STBaoliTC-Regular, 'Baoli TC';
        font-size: 62.61px;
      }

      .cls-3 {
        fill: #a2a2a2;
      }
    </style>
  </defs>
  <text class="cls-2" transform="translate(85.79 91.02) scale(.78 1)"><tspan x="0" y="0">開運オロチ神社</tspan></text>
  <path class="cls-3" d="M64.84,89.38c.28,1.39.51,2.79-.25,3.98-.95,1.51-2.76,1.71-4.38,1.78-4.67.22-9.27.22-13.94.09-1.69-.05-3.53-.28-4.49-1.81-.68-1.08-.48-2.3-.27-3.51,1.9-10.48,3.8-20.98,5.72-31.45.27-1.46-.16-3.81,2.35-3.67,3.44.2,3.68.74,7.05.34,2.18-.26,1.88,2.22,2.4,3.39.83,1.9,1.04,3.73,1.33,5.97,1.15,8.75,2.74,16.18,4.47,24.88Z"/>
  <g>
    <path class="cls-1" d="M67.6,41.04c.13-.62-6.84,1.77-7.56,2.28-1.18.84-5.58,4.86-4.48,6.72,2.87,4.85,11.51-6.51,12.05-9.01Z"/>
    <path class="cls-1" d="M63.59,32.5c-2.66.27-5.16,1.77-6.67,3.98-1.34,1.97-2.21,5.59-.87,6.47.8.52,2.36-.32,2.86-.59.24-.13,1.15-.64,2-1.75,2.08-2.7,2.59-7.24,2.67-8.1Z"/>
    <path class="cls-1" d="M52.49,37.99c1.02-.93-.53-4.44-2.11-6.54-1.51-2-3.33-3.12-4.52-3.72-.18.5-1.52,4.3.63,7.39,1.67,2.4,5.03,3.75,6,2.87Z"/>
    <path class="cls-1" d="M51.76,46.07c-.2-.27-1.25-1.6-3.21-2.47-2.64-1.16-5.09-.65-5.95-.43.46,1.08,1.2,2.67,2.3,4.5,1.06,1.75,1.6,2.65,2.63,3.46,5.66,4.46,8.2.2,4.23-5.06Z"/>
    <path class="cls-1" d="M51.99,27.73c1.48-.37,1.86-5.78.56-10.11-1.14-3.8-3.45-6.34-4.94-7.73-.7,1.93-1.65,5.45-.76,9.55.91,4.21,3.69,8.66,5.15,8.3Z"/>
    <path class="cls-1" d="M59.49,27.73c1.92-2.47,2.61-5.07,2.9-6.71-1.05.14-3.97.68-6.06,3.12-2.27,2.64-2.88,6.69-1.85,7.31.99.59,3.64-1.95,5.01-3.72Z"/>
    <path class="cls-1" d="M41.32,39.67c1.19.66,3.13,1.76,5.18,1,1.38-.51,2.16-1.62,2.51-2.2-.89-1.16-2.02-2.17-3.25-2.93-1.3-.8-2.44-1.08-3.83-1.45-1.38-.36-3.32-.74-5.73-.82.48,1.36,1.85,4.55,5.13,6.39Z"/>
  </g>
  <path class="cls-3" d="M473.05,89.38c.28,1.39.51,2.79-.25,3.98-.95,1.51-2.76,1.71-4.38,1.78-4.67.22-9.27.22-13.94.09-1.69-.05-3.53-.28-4.49-1.81-.68-1.08-.48-2.3-.27-3.51,1.9-10.48,3.8-20.98,5.72-31.45.27-1.46-.16-3.81,2.35-3.67,3.44.2,3.68.74,7.05.34,2.18-.26,1.88,2.22,2.4,3.39.83,1.9,1.04,3.73,1.33,5.97,1.15,8.75,2.74,16.18,4.47,24.88Z"/>
  <g>
    <path class="cls-1" d="M475.81,41.04c.13-.62-6.84,1.77-7.56,2.28-1.18.84-5.58,4.86-4.48,6.72,2.87,4.85,11.51-6.51,12.05-9.01Z"/>
    <path class="cls-1" d="M471.8,32.5c-2.66.27-5.16,1.77-6.67,3.98-1.34,1.97-2.21,5.59-.87,6.47.8.52,2.36-.32,2.86-.59.24-.13,1.15-.64,2-1.75,2.08-2.7,2.59-7.24,2.67-8.1Z"/>
    <path class="cls-1" d="M460.69,37.99c1.02-.93-.53-4.44-2.11-6.54-1.51-2-3.33-3.12-4.52-3.72-.18.5-1.52,4.3.63,7.39,1.67,2.4,5.03,3.75,6,2.87Z"/>
    <path class="cls-1" d="M459.97,46.07c-.2-.27-1.25-1.6-3.21-2.47-2.64-1.16-5.09-.65-5.95-.43.46,1.08,1.2,2.67,2.3,4.5,1.06,1.75,1.6,2.65,2.63,3.46,5.66,4.46,8.2.2,4.23-5.06Z"/>
    <path class="cls-1" d="M460.2,27.73c1.48-.37,1.86-5.78.56-10.11-1.14-3.8-3.45-6.34-4.94-7.73-.7,1.93-1.65,5.45-.76,9.55.91,4.21,3.69,8.66,5.15,8.3Z"/>
    <path class="cls-1" d="M467.7,27.73c1.92-2.47,2.61-5.07,2.9-6.71-1.05.14-3.97.68-6.06,3.12-2.27,2.64-2.88,6.69-1.85,7.31.99.59,3.64-1.95,5.01-3.72Z"/>
    <path class="cls-1" d="M449.53,39.67c1.19.66,3.13,1.76,5.18,1,1.38-.51,2.16-1.62,2.51-2.2-.89-1.16-2.02-2.17-3.25-2.93-1.3-.8-2.44-1.08-3.83-1.45-1.38-.36-3.32-.74-5.73-.82.48,1.36,1.85,4.55,5.13,6.39Z"/>
  </g>
</svg>