<?xml version="1.0" encoding="UTF-8"?>
<svg id="_レイヤー_1" data-name="レイヤー 1" xmlns="http://www.w3.org/2000/svg" viewBox="0 0 3200 160">
  <defs>
    <style>
      .cls-1 {
        fill: #34334d;
      }

      .cls-1, .cls-2 {
        opacity: .9;
      }

      .cls-3 {
        stroke-width: 2px;
      }

      .cls-3, .cls-4 {
        fill: #5e5e5e;
        stroke: #5e5e5e;
        stroke-miterlimit: 10;
      }

      .cls-5 {
        fill: #7376c1;
      }

      .cls-4 {
        stroke-width: 2.4px;
      }
    </style>
  </defs>
  <g>
    <g>
      <path class="cls-4" d="M1769.08,145.88c0,.14.02.27.02.41h1420v-.41h-1420.01Z"/>
      <path class="cls-3" d="M634.21,145.69c-15.91,0-28.86-11.57-28.86-25.79v-7.31c0-14.22,12.95-25.8,28.86-25.8h205.72c16.4,0,29.74-11.92,29.74-26.58v-8.08c0-14.66-13.34-26.58-29.74-26.58h-448.54v.79h416.39c15.91,0,28.86,11.57,28.86,25.79v8.08c0,14.22-12.95,25.79-28.86,25.79h-205.72c-16.4,0-29.74,11.93-29.74,26.59v7.31c0,14.66,13.34,26.58,29.74,26.58h777.6v-.79h-745.46Z"/>
      <path class="cls-3" d="M1381.48,145.69v.79h386.01c0-.26,0-.53,0-.79h-386Z"/>
    </g>
    <path class="cls-3" d="M391.39,25.55H5.38v.79h386.01c0-.26,0-.53,0-.79Z"/>
  </g>
  <g class="cls-2">
    <path class="cls-1" d="M2263.58,143.16c-15.34-10.54-42.24-25.42-88.13-36.57-68.02-16.53-117.67-10.36-218.44-17.24-128.1-8.75-162.25-27.21-221.62-33.87-21.71-2.44-40.89-3.9-65.35-2.18-31.44,2.21-58.58,9.36-170.37,56.6-26.23,11.09-48.45,20.71-65.2,28.05,276.37,1.74,552.73,3.48,829.1,5.22Z"/>
    <path class="cls-5" d="M1229.37,144.16c192.11,0,786.4,0,797.46-.51.33-.02.42-.04.43-.08.64-1.76-146.4-32.83-258.48-28.04-23.1.99-43.82,3.16-73.5-2.02-59.98-10.46-76.89-37.04-120.62-33.39-27.15,2.27-27.39,13.07-57.65,15.82-40.47,3.68-67-13.2-90.42-19.41-34.07-9.04-92.36-3.69-197.23,67.62Z"/>
    <path class="cls-5" d="M3194,144.04c-187.3.08-374.59.12-561.89.12-256.83,0-513.67-.07-770.5-.21,207.15-39.88,289.43-44.87,317.97-37.53,2.13.55,12.73,3.42,28.16,6.03,33.79,5.72,59.71,4.96,88.69,5.17,78.91.57,71.65,7.56,109.79,4.39,42.84-3.56,46.9-11.95,94.1-14.57,23.41-1.3,40.44-.24,68.23,1.5,62.05,3.87,75.44,10.36,119.26,11.01,2.64.04,24.62-1.62,68.59-4.85,84.14-6.2,96.52-7.58,113.22-10.38,39.64-6.63,38.01-10.19,63.58-12.05,7.06-.51,41.2-2.72,88.78,7.49,34.16,7.33,40.33,13.29,78.41,24.77,19.77,5.96,50.34,13.67,93.6,19.12Z"/>
  </g>
</svg>