<?xml version="1.0" encoding="UTF-8"?>
<svg id="_全体" data-name="全体" xmlns="http://www.w3.org/2000/svg" viewBox="0 0 1080 1350">
  <defs>
    <style>
      .cls-1, .cls-2 {
        font-size: 64.35px;
      }

      .cls-1, .cls-2, .cls-3, .cls-4 {
        font-family: 'MomochidoriVF_83.000wdth_501.000wght-83pv-RKSJ-H', 'Momochidori VF';
        font-variation-settings: 'wdth' 83, 'wght' 501, 'ital' 0;
      }

      .cls-2, .cls-3, .cls-4, .cls-5 {
        fill: #5f5299;
      }

      .cls-6 {
        letter-spacing: .25em;
      }

      .cls-7 {
        letter-spacing: .26em;
      }

      .cls-8 {
        letter-spacing: .24em;
      }

      .cls-9 {
        letter-spacing: .25em;
      }

      .cls-3 {
        font-size: 88.11px;
      }

      .cls-4 {
        font-size: 95.81px;
      }

      .cls-10 {
        fill: red;
      }
    </style>
  </defs>
  <g>
    <text class="cls-1" transform="translate(364.45 1058.08) scale(1.21 1)"><tspan class="cls-6" x="0" y="0">O</tspan><tspan class="cls-8" x="65.64" y="0">r</tspan><tspan class="cls-7" x="106.18" y="0">o</tspan><tspan class="cls-9" x="161.08" y="0">chi</tspan></text>
    <text class="cls-2" transform="translate(364.45 1058.08) scale(1.21 1)"><tspan class="cls-6" x="0" y="0">O</tspan><tspan class="cls-8" x="65.64" y="0">r</tspan><tspan class="cls-7" x="106.18" y="0">o</tspan><tspan class="cls-9" x="161.08" y="0">chi</tspan></text>
  </g>
  <path class="cls-5" d="M704.09,858.64c-3.72-10.79-21.07-29.43-31.65-34.63-18.71-9.18-59.8-4.7-77.73,5.55-6.05,3.46-8.96,8.84-16.69,8.98-.8.02-1.57-.36-2.42-.38-2.48-.03-15.49-.29-16.31-2.61-.28-.79-.16-4.77-.06-5.86,1.01-11.73,10.09-18.66,19.33-25.03,26.98-18.6,70.86-34.8,78.62-69.24.91-4.06,1.25-8.16,1.63-12.28,17.05-3.34,36.91-13.19,38.35-31.78,3.19-41.29-42.95-62.77-80.28-50.91-20.54,6.53-49.33,26.06-47.74,49.33.72,10.5,8.35,17.85,10.65,27.78,3.84,16.63-1.46,24.65-13.95,35.46-19.17,16.57-43.92,24.81-57.65,47.36-22.58,37.07-6.56,94.97,37.55,109.76,24.93,8.36,45.21.85,63.8-15.41,12.29-10.75,17.14-24.18,32.5-31.84,2.97-1.48,11.28-5.29,14.29-5.36,4.45-.11,7.57,6.72,8.81,10.2,9.57,26.89-6.32,52.65-25.99,70.67-3.04,2.79-7.02,5.41-9.94,8.3-.82.81-4.93,4.92-4.14,5.72,12.47-4.32,26.52-6.99,38.11-13.23,25.24-13.57,50.52-52.62,40.9-80.54ZM647.59,651.55s-.04-.02-.05-.03c.38.2.77.44,1.16.73-.38-.26-.75-.5-1.11-.7Z"/>
  <text class="cls-3" transform="translate(363.88 718.47) scale(1.17 1)"><tspan x="0" y="0">開</tspan></text>
  <text class="cls-4" transform="translate(365.03 930.89) scale(1.08 1)"><tspan x="0" y="0">運</tspan></text>
  <path class="cls-10" d="M730.39,271.27c-54.66,7.75-117.9,13.31-188.15,13.43-72.09.12-136.86-5.52-192.63-13.42l1.6,4.55c-.53-.07-1.07-.15-1.6-.22l9.18,26.02c3.51.32,7.06.63,10.61.94v16.15c16.05.84,32.37,1.56,48.9,2.17-.28,5.83-.55,11.66-.83,17.49-.04-.01-.09-.04-.13-.05.04.12.08.23.12.35-.06,1.31-.12,2.61-.19,3.92h-45.82v20.88h44.83c-2.71,57.06-5.42,114.11-8.13,171.17-.02,0-.03,0-.05-.01-.62-.08-1.42-.12-2.32,0-1.94.27-3.34,1.13-4.08,1.68-1.13,9.03-2.26,18.05-3.39,27.08,6.24,2.03,14.88,4.13,25.31,4.57,12.44.52,22.7-1.53,29.65-3.5-.35-9.08-.7-18.16-1.05-27.24-.19-.5-.6-1.4-1.5-2.17-1.56-1.34-3.41-1.28-3.86-1.26,0,0-.02,0-.03,0,1.4-52.34,2.81-104.69,4.21-157.03,1.4.64,2.79.97,4.11.93,3.27,3.63,7.44,5.82,11.04,5.42,3.34,3.34,7.58,5.19,11.25,4.55h0c1.83,1.63,3.91,2.8,6.03,3.41l-3.1,3.35,7.8,8.43-7.8,8.43,7.8,8.43-5.96,6.45,4.29,3.97,9.63-10.42-7.8-8.43,7.8-8.43-7.8-8.43,1.99-2.15c3.25,2.1,7.06,2.87,10.38,1.78,3.56,2.57,8.06,3.43,11.91,1.9,1.22.78,2.56,1.34,3.94,1.69l4.82,5.22-7.8,8.43,7.8,8.43-5.96,6.45,4.29,3.97,9.63-10.42-7.8-8.43,7.8-8.43-5.26-5.69c.18-.07.36-.12.53-.21,3.62,2.04,8.16,2.23,12.03.13.05-.03.1-.05.16-.08,0,0,0-.01-.01-.02h0c3.55,1.82,8.03,1.73,11.88-.52l5.91,6.39-7.8,8.43,7.8,8.43-5.96,6.45,4.29,3.97,9.63-10.42-7.8-8.43,7.8-8.43-5.77-6.24c1.42-.41,2.82-1.06,4.14-1.98,3.58,1.23,8.04.41,11.81-2.55,3.53.97,7.93-.19,11.63-3.43.28.06.58.08.87.1l-5.24,5.67,7.8,8.43-7.8,8.43,7.8,8.43-5.96,6.45,4.29,3.97,9.63-10.42-7.8-8.43,7.8-8.43-7.8-8.43,5.96-6.45-1.3-1.2c1.05-.64,2.07-1.43,3.05-2.37h0c3.38.41,7.55-1.41,11.04-5.19,0,0,0,0,0,0h0c3.3.17,7.38-1.98,10.78-6.07,2.02-.06,4.33-1.08,6.58-2.92,1.47,54.9,2.95,109.79,4.42,164.69-.18-.06-.37-.12-.54-.19-.45-.03-2.3-.08-3.86,1.26-.9.77-1.32,1.67-1.5,2.17-.35,9.08-.7,18.16-1.05,27.24,6.96,1.97,17.21,4.02,29.65,3.5,10.43-.43,19.06-2.53,25.31-4.57-1.13-9.03-2.26-18.05-3.39-27.08-.74-.55-2.14-1.41-4.08-1.68-.73-.1-1.36-.08-1.92-.03-2.72-57.35-5.45-114.71-8.17-172.06h44.49v-20.88h-45.48c-.34-7.25-.69-14.5-1.03-21.75,16.11-.6,32.01-1.31,47.66-2.13v-14.44c5.88-.45,11.73-.91,17.51-1.4,2.77-9.09,5.54-18.19,8.31-27.28-.46.06-.92.13-1.37.19.46-1.51.92-3.01,1.37-4.52ZM604.1,367.83c-1.87.92-3.78,2.27-5.55,4.04h0s0,0,0,0c-1.71-.18-3.66.15-5.65.94-1.89.76-3.82,1.94-5.61,3.53h0c-1.73-.3-3.69-.12-5.69.51-1.96.62-3.96,1.68-5.8,3.16-1.79-.45-3.81-.43-5.87.06-2,.47-4.02,1.38-5.9,2.72-1.81-.59-3.86-.71-5.95-.38-2.01.32-4.06,1.07-5.95,2.28-1.83-.72-3.9-1-6-.83-2.03.17-4.09.77-5.99,1.84h0s0,0,0,0c-1.84-.86-3.92-1.29-6.03-1.27-2.09.02-4.21.49-6.16,1.47,0,0,0,.01.01.02l.02.02c-.07-.04-.13-.09-.2-.12-1.3-.71-2.73-1.2-4.19-1.48l-.37-.34-.22.24c-.41-.06-.82-.12-1.23-.15-2.03-.13-4.09.16-5.99.94-1.83-1.13-3.9-1.87-5.99-2.17-2.02-.28-4.07-.14-5.95.5h0s0,0,0,0c-1.82-1.27-3.87-2.16-5.94-2.61-2-.43-4.02-.44-5.87.06-1.79-1.4-3.81-2.45-5.85-3.05-1.97-.58-3.96-.74-5.78-.38h0s0,0,0,0c-1.76-1.54-3.75-2.74-5.75-3.5-1.9-.72-3.82-1.04-5.58-.83h0c-1.71-1.63-3.61-2.96-5.53-3.86-1.88-.88-3.78-1.34-5.51-1.26-1.68-1.81-3.56-3.31-5.45-4.38-.07-.04-.15-.07-.22-.11h160.43c-1.09.85-2.17,1.83-3.2,2.97,1.01.03,1.92.28,2.72.71-.8-.44-1.71-.69-2.72-.71-1.66-.05-3.55.43-5.49,1.38ZM623.33,342.59h-171.38c.18-6.87.37-13.74.55-20.61,23.75.63,47.98.99,72.64,1.08v19.48h24.57v-19.48c24.8-.1,49.18-.47,73.06-1.11.18,6.88.37,13.76.55,20.64Z"/>
</svg>