<?xml version="1.0" encoding="UTF-8"?>
<svg id="_全体" data-name="全体" xmlns="http://www.w3.org/2000/svg" viewBox="0 0 1080 1350">
  <defs>
    <style>
      .cls-1 {
        fill: #fefefe;
      }

      .cls-2 {
        fill: #aaa6a5;
      }
    </style>
  </defs>
  <g id="_オロチたち" data-name=" オロチたち">
    <g>
      <path class="cls-1" d="M434.95,901.72c.45.02.81-.16,1.23-.32,4.06-1.47,11.83-5.63,15.71-7.9,9.89-5.79,21.94-16.85,20.4-29.53-.82-.8-1.31,1.26-2.02,1.85l-1.85,4.91c.05-4.96-.43-9.86-2.38-14.45-1.11-2.62-1.19-2.48-1.97-5.38-1.2-4.48-4.3-8.9-6.17-13.18-19.52-44.83,14.61-78.39,59.47-74.56,24.7,2.11,37.13,14.51,57.21,25.99,7.02,4.02,17.93,10.51,26.18,7.86.41-.13,4.27-1.84,3.49-2.5-2.08-.29-4.07.89-6.04,1.12-8.44.96-16.36-3.14-13.7-12.73-3.8,4.32-2.22,1.36-4.43-1.95-2.79-1.95-18.43-19.45-19.81-19.69-.08-.01-.17,0-.26.01-1.2-1.17-2.66-2.06-3.8-3.29.04-.12.06-.26.06-.43,0-1-11.83-12.6-13.55-14.71-1.47-1.81-2.7-3.74-4.04-5.63-3.48-4.87-7.24-9.58-10.45-14.71-14.7-23.51-25.03-53.81-14.07-80.95.66-1.64,6.31-13.06,6.98-13.73,1.01-1.01,2.84-.54,2.99-3.04.6-.73,1.21-1.46,1.69-2.28,1.8-.88,7.15-4.61,8.5-5.3,23.24-11.82,67.28-1.54,89,11.36,22.35,13.27,44.74,46.9,42.4,73.6-1.07,12.27-11.8,26.76-25.25,25.35-11.81-1.24-33.81-17.98-39.22-28.51-6.61-12.87-4.11-19.46-21.98-20.98-1.23-.1-5.68.36-6.22-.38-.13-2.31,1.42-4.63,3.7-5.05.41-.94-.75-.7-.8-.98-.16-1.04,2.23-2.97.4-3.88-.93-.46-2.15.96-2.64,1.63-.98,1.38-6.52,12.66-6.63,13.92-.23,2.53,1.91,9.52,3.01,12.02,6.97,15.83,34.9,29.62,48.06,41.72,27.27,25.06,31.66,82.33,1.12,106.39-18.73,14.76-45.45,23.01-66.49,8.12-21.57-15.26-27.94-40.36-55.69-48.81-8.17-2.49-1.67-7.31-1.25-12.49-3.87-.19-1.26,5.56-5.8,3.48-1.38,18.75,8.68,35.51,11.17,53.65,2.05,14.99-.45,26.73-10.4,38.25-13.88,16.06-31.39,19.7-52.04,18-2.17-.18-3.6-.27-4.49-1.74.21-.05.42-.11.63-.18Z"/>
      <g>
        <path class="cls-2" d="M524.84,622.26c.03.34.05.36.39.39.73.06,7.49-4.7,9.03-5.48,23.24-11.82,67.28-1.54,89,11.36,22.35,13.27,44.74,46.9,42.4,73.6-1.07,12.27-11.8,26.76-25.25,25.35-11.81-1.24-33.81-17.98-39.22-28.51-6.61-12.87-4.11-19.46-21.98-20.98-1.23-.1-5.68.36-6.22-.38-.13-2.31,1.42-4.63,3.7-5.05.41-.94-.75-.7-.8-.98-.16-1.04,2.23-2.97.4-3.88-.93-.46-2.16.96-2.64,1.63-.98,1.38-6.52,12.66-6.63,13.92-.23,2.53,1.91,9.52,3.01,12.02,6.97,15.83,34.9,29.62,48.06,41.72,27.27,25.06,31.66,82.33,1.12,106.39-18.73,14.76-45.45,23.01-66.49,8.12-21.57-15.26-27.94-40.36-55.69-48.81-8.17-2.49-1.67-7.31-1.25-12.49-3.87-.19-1.26,5.56-5.8,3.48-1.38,18.75,8.68,35.51,11.17,53.65,2.05,14.99-.45,26.73-10.4,38.25-13.88,16.06-31.39,19.7-52.04,18-2.7-.22-4.26-.3-5.04-3.1-1.13.39-9,3.77-4.27,4.29,28.48,3.09,52.14,1.79,68.1-24.82,7.32-12.2,8.21-21.32,5.45-35.19-2.71-13.66-9.01-26.59-9.87-40.63,8.36.9,16.3,6.69,22.45,12.19,17.39,15.54,27.76,39.65,52.62,44.9,32.02,6.77,72.12-23.34,74.31-56.12.36-5.4.6-15.71.03-20.92-.12-1.06-.6-1.09-.8-1.53-.14-.32.67-.04.78-.44.6-2.26-.66-3.41-1.06-5.08-5.51-23.08-12.8-36.86-32.1-51.1-11.14-8.22-37.22-22.76-38.77-37.47-.89-8.39,1.87-9.34,9.77-8.61,15.89,1.46,13.81,14.6,21.38,24.68,6.28,8.37,27.02,23.99,37.49,24.82,23.19,1.85,32.01-24.7,27.74-43.6-6.69-29.6-28.83-54.54-56.57-66.12-20.09-8.39-55.05-14.05-75.45-5.42-2.15.91-10.28,5.4-10.07,7.93Z"/>
        <path class="cls-2" d="M462.82,853.4c.26.45.38,2.45.69,3.38,3.33,9.96,5.97,18.2-3.29,25.74-.78.63-3.09,1.71-3.32,2.11-.82,1.49,2.63,1.4,1.76,2.33-1.44.63-3.98,1.48-5.17,2.38-.73.56-.92,1.27-1.91,1.96-4.66,3.23-11.94,4.98-16.85,8.11l-.06,2.26c.55.11.95-.13,1.44-.3,4.06-1.47,11.83-5.63,15.71-7.9,9.89-5.79,21.94-16.85,20.4-29.53-.82-.8-1.31,1.26-2.02,1.85l-1.85,4.91c.05-4.96-.43-9.86-2.38-14.45-1.11-2.62-1.19-2.48-1.97-5.38-1.2-4.48-4.3-8.9-6.17-13.18-19.52-44.83,14.61-78.39,59.47-74.56,24.7,2.11,37.13,14.51,57.21,25.99,7.02,4.02,17.93,10.51,26.18,7.86.41-.13,4.27-1.84,3.49-2.5-2.08-.29-4.07.89-6.04,1.12-8.44.96-16.36-3.14-13.7-12.73-3.8,4.32-2.22,1.36-4.43-1.95-2.79-1.95-18.43-19.45-19.81-19.69-.72-.13-1.69,1.2-1.12,1.9,6.45,7.27,15.41,13.77,20.64,21.95.47.73,2.87,4.64,2.39,5.15-10.73-4.69-19.57-12.75-29.79-18.39-28.96-15.97-72.3-18.05-93.21,11.69-16.44,23.39-9.2,47.29,3.69,69.88Z"/>
        <path class="cls-2" d="M521.08,627.78c1.1-1.1,3.18-.44,3-3.77-3.26-.49-2.83,1.95-3.71,3.64-.47.91-2.69,2.86-3.58,4.16-19.67,29.02-5.42,68.8,11.76,95.29,4.6,7.09,18.62,26.47,25.19,30.54.83.52,2.48,1.45,2.46-.13,0-1-11.83-12.6-13.55-14.71-1.47-1.81-2.7-3.74-4.04-5.63-3.48-4.87-7.24-9.58-10.45-14.71-14.7-23.51-25.03-53.81-14.07-80.95.66-1.64,6.31-13.06,6.98-13.73Z"/>
        <path class="cls-2" d="M524.84,622.26l-.38.2c-.09.6-.03.66.57.57l.2-.38c-.34-.03-.36-.05-.39-.39Z"/>
      </g>
    </g>
  </g>
</svg>