<?xml version="1.0" encoding="UTF-8"?>
<svg id="_全体" data-name="全体" xmlns="http://www.w3.org/2000/svg" viewBox="0 0 1080 1350">
  <defs>
    <style>
      .cls-1 {
        fill: #fdfbfb;
      }

      .cls-2 {
        fill: #fd3719;
      }

      .cls-3 {
        fill: red;
      }

      .cls-4 {
        fill: #aaa6a5;
      }
    </style>
  </defs>
  <g id="_オロチたち" data-name=" オロチたち">
    <g>
      <path class="cls-1" d="M669.72,964.52c27.62,36.15,7.63,79.49-20.6,108.79-18.07,18.76-41.87,27.5-66.83,35.08,15.62-15.17,34.3-28.64,44.27-48.26,14.01-27.54,18.28-83.72-25.37-87.57-2.72-.23-5.8-.99-4.89,2.16,4.46.25,10.37.75,14.33,2.76.61.31,1.66.48,1.42,1.42-6.06,2.84-12.57,3.67-18.68,6.67-20.65,10.14-31.51,31.78-48.42,46.25-5.72,4.89-11.45,9.15-17.24,12.68-1.74,1.06-3.48,2.05-5.23,2.99-1.75.92-3.5,1.79-5.27,2.58-1.76.78-3.54,1.51-5.32,2.17-5.35,1.96-10.79,3.28-16.37,3.91-6.72.75-13.63.5-20.81-.85-7.53-1.43-15.35-4.08-23.54-8.07-57.22-27.83-70.61-112.32-29.93-157.98,21.28-23.89,91.91-56.43,95.1-86.91.38-3.63.57-15.54-.12-18.8-1.49-6.93-13.16-20.56-16.49-28.82-11.92-29.53,22.66-59.13,47.92-70.09,3.2-1.38,13.83-5.55,16.81-5.1,5.94,4.74,11.47,9.91,17.57,14.47,13.56,10.13,29.35,19.52,45.78,24.52-.88-.98-1.93-2.32-3.1-3.89-.47-.63-.96-1.29-1.47-1.98-2.97-4.05-6.55-9.07-10.2-13.34-.23-.28-.46-.55-.7-.82-.04-.05-.09-.09-.13-.15-.27-.3-.53-.6-.8-.9-.62-.68-1.24-1.33-1.86-1.95-.22-.23-.44-.44-.66-.65-.28-.27-.55-.53-.82-.76-.27-.24-.54-.48-.81-.72-.54-.46-1.08-.88-1.61-1.25-.55-.4-1.09-.74-1.63-1.03-2.71-1.94-5.53-3.66-8.45-5.18,0,0,0-.01-.02-.01-.02-.01-.05-.03-.07-.05-.34-.24-.7-.47-1.06-.69-.77-.48-1.57-.95-2.39-1.37-.3-.16-.6-.31-.9-.46-1.36-.69-2.77-1.32-4.2-1.9-.42-.18-.85-.36-1.28-.53-.29-.12-.58-.23-.88-.35-.54-.22-1.08-.43-1.62-.63-1.44-.55-2.87-1.1-4.27-1.65-.8-.32-1.59-.65-2.37-.98-.41-.17-.82-.35-1.22-.53l7.89-1.66c33.82-2.12,71.27,13.66,82.58,45.94,17.41,49.71-37.8,76.99-81.86,61.41-8.8-3.1-14.69-8.84-23.2-12.1-.25,1.04.62,1.32,1.17,1.94,4.86,5.63,13.46,11.04,20.44,13.9,10.09,4.14,21.79,6.23,32.66,5.32-.26,3.68.37,7.78,0,11.41-4.74,47.17-72.98,74.78-108.73,98.96-7.7,5.22-20.59,13.92-25.22,21.6-7.25,12.05-9.04,38.82,2.33,49.05,2.53,2.28,4.17,2.49,7.64,2.23,6.7-.52-2.54-3.01-4.03-4-4.24-2.82-6.44-11.35-6.79-16.06,1.02-.97,19.84,3.13,23.06,3.32,12.36.78,17.77-6.42,27.05-12.04,23.45-14.19,78.66-20.62,103.18-7.53,4.28,2.28,11.8,9.27,15.39,10.36,1.94.59,3.59.06,5.39.43,2.73.57,13.35,12.52,15.48,15.3ZM597.46,766.7c13.22-12.9-22.36-25.27-16.93-3.62h-1.74c3.01,6,13.6,8.58,18.67,3.62Z"/>
      <path class="cls-4" d="M683.7,982.94c13.55,39.35-22.07,94.37-57.63,113.49-16.33,8.79-36.12,12.57-53.69,18.65-1.11-1.13,4.67-6.92,5.83-8.07,4.12-4.06,9.72-7.75,14.01-11.69,27.72-25.39,50.1-61.69,36.62-99.57-1.75-4.92-6.14-14.53-12.41-14.38-4.24.09-15.96,5.46-20.14,7.55-21.64,10.79-28.48,29.71-45.79,44.86-26.19,22.92-54.76,33.5-89.89,21.72-62.15-20.85-84.73-102.42-52.91-154.66,19.35-31.77,54.22-43.39,81.23-66.73,17.6-15.23,25.06-26.53,19.65-49.96-3.24-14-14-24.35-15.01-39.14-2.25-32.79,38.32-60.31,67.26-69.51,52.6-16.71,117.6,13.56,113.11,71.74-2.03,26.2-30.02,40.07-54.04,44.78-.53,5.82-1.01,11.59-2.29,17.31-10.94,48.53-72.76,71.36-110.78,97.56-13.02,8.97-25.82,18.74-27.24,35.26-.13,1.55-.31,7.15.09,8.26,1.16,3.28,19.49,3.63,22.98,3.68,1.2.02,2.28.55,3.41.53,10.89-.2,15-7.78,23.52-12.65,25.27-14.45,83.16-20.76,109.52-7.82,14.91,7.32,39.35,33.59,44.59,48.79ZM649.12,1073.31c28.23-29.3,48.22-72.64,20.6-108.79-2.13-2.78-12.75-14.74-15.48-15.3-1.8-.37-3.45.16-5.39-.43-3.59-1.1-11.11-8.08-15.39-10.36-24.52-13.09-79.73-6.66-103.18,7.53-9.28,5.62-14.69,12.82-27.05,12.04-3.22-.2-22.04-4.29-23.06-3.32.35,4.71,2.55,13.25,6.79,16.06,1.49.99,10.73,3.48,4.03,4-3.47.27-5.11.06-7.64-2.23-11.37-10.24-9.58-37.01-2.33-49.05,4.63-7.68,17.52-16.39,25.22-21.6,35.75-24.17,103.99-51.79,108.73-98.96.37-3.63-.26-7.73,0-11.41-10.87.91-22.57-1.18-32.66-5.32-6.98-2.86-15.58-8.27-20.44-13.9-.55-.62-1.42-.9-1.17-1.94,8.51,3.27,14.4,9,23.2,12.1,44.06,15.58,99.27-11.7,81.86-61.41-11.31-32.27-48.76-48.06-82.58-45.94l-7.89,1.66c.4.18.81.36,1.22.53.77.33,1.56.66,2.37.98,1.4.55,2.83,1.1,4.27,1.65.54.21,1.08.42,1.62.63.3.12.59.23.88.35.43.17.85.35,1.28.53,1.43.59,2.84,1.21,4.2,1.9.3.15.61.3.9.46.82.43,1.62.89,2.39,1.37.36.22.71.45,1.06.69.02.01.05.03.07.05.01,0,.01.01.02.01,1.34.92,2.57,1.94,3.65,3.09-1.44.16-2.56-.01-3.92-.43-.42-.13-.85-.28-1.29-.46-.3-.12-.6-.25-.91-.39-.29-.13-.59-.27-.89-.42-3.62-1.78-7.69-4.55-11.57-6.33-.36-.17-.72-.32-1.07-.47-.36-.15-.71-.29-1.06-.42-1.67-.6-9.12-2.98-10.22-2.2,12.93,15.84,32.8,25.32,50.58,35.55,4.04.33-2.41-6.95-3.33-7.97-1-1.12-4.15-3.93-7.32-6.81-.33-.3-.67-.61-1-.91-2.45-2.2-4.77-4.35-5.98-5.64,0,0-.01,0-.01-.01-.51-.54-.82-.93-.86-1.12-.16-.85.02-.97.89-.85.88.13,1.81.46,2.76.98.02.01.05.03.07.05.51.28,1.03.61,1.56.98.53.38,1.07.8,1.61,1.25.27.23.54.47.81.72.27.25.55.51.82.76.22.22.44.43.66.65.62.62,1.24,1.27,1.86,1.95.27.3.53.6.8.9.04.06.09.1.13.15.23.27.47.54.7.82,3.65,4.27,7.23,9.29,10.2,13.34.51.69,1,1.36,1.47,1.98,1.17,1.57,2.22,2.91,3.1,3.89-16.43-5-32.22-14.39-45.78-24.52-6.1-4.56-11.63-9.73-17.57-14.47-2.98-.45-13.61,3.72-16.81,5.1-25.26,10.96-59.84,40.56-47.92,70.09,3.33,8.26,15,21.89,16.49,28.82.69,3.25.5,15.16.12,18.8-3.19,30.49-73.82,63.03-95.1,86.91-40.68,45.66-27.29,130.15,29.93,157.98,8.19,3.98,16.01,6.63,23.54,8.07,7.17,1.36,14.09,1.62,20.81.85,5.58-.62,11.02-1.95,16.37-3.91,1.78-.65,3.56-1.37,5.32-2.17,1.77-.8,3.52-1.65,5.27-2.58,1.75-.92,3.49-1.93,5.23-2.99,5.79-3.53,11.52-7.79,17.24-12.68,16.91-14.47,27.77-36.11,48.42-46.25,6.11-3,12.62-3.83,18.68-6.67.24-.93-.81-1.11-1.42-1.42-3.96-2.01-9.87-2.5-14.33-2.76-.91-3.15,2.17-2.39,4.89-2.16,43.65,3.85,39.38,60.03,25.37,87.57-9.97,19.62-28.65,33.08-44.27,48.26,24.96-7.58,48.76-16.32,66.83-35.08Z"/>
      <path class="cls-3" d="M615.54,705.46c.92,1.03,7.37,8.31,3.33,7.97-17.78-10.24-37.65-19.71-50.58-35.55,1.1-.77,8.55,1.6,10.22,2.2.35.13.7.27,1.06.42.35.15.71.3,1.07.47,3.88,1.79,7.95,4.56,11.57,6.33.3.15.6.29.89.42.31.14.61.28.91.39,1.94.97,3.87,1.95,5.81,2.92.03.05.06.09.11.13.44.31.86.62,1.3.92,0,.01.01.01.01.01,1.21,1.29,3.53,3.44,5.98,5.64.33.31.67.61,1,.91,3.17,2.87,6.32,5.69,7.32,6.81Z"/>
      <path class="cls-2" d="M607.22,697.74c.33.3.67.61,1,.91-.33-.3-.67-.6-1-.91Z"/>
      <path class="cls-2" d="M604.02,691.09c-.95-.52-1.88-.85-2.76-.98-.87-.12-1.05,0-.89.85.04.18.35.58.86,1.12-.44-.3-.86-.61-1.3-.92-.05-.03-.08-.08-.11-.13-1.94-.97-3.87-1.95-5.81-2.92.44.18.87.33,1.29.46,1.36.42,2.48.59,3.92.43-1.08-1.15-2.31-2.17-3.65-3.09,2.92,1.52,5.74,3.24,8.45,5.18Z"/>
      <path class="cls-4" d="M580.53,763.07c-5.43-21.65,30.15-9.28,16.93,3.62-5.07,4.96-15.66,2.38-18.67-3.61h1.74ZM592.26,766.19c9.05-2.02,3.6-13.25-3.68-12.47-9.68,1.04-5.67,14.55,3.68,12.47Z"/>
      <path class="cls-2" d="M588.34,752.86c8.56-.91,14.97,12.3,4.33,14.67-11,2.44-15.72-13.45-4.33-14.67Z"/>
      <path class="cls-2" d="M588.94,755.55c5.46-.58,9.55,7.85,2.76,9.36-7.02,1.56-10.03-8.58-2.76-9.36Z"/>
      <path class="cls-1" d="M589.33,757.3c3.45-.37,6.03,4.95,1.74,5.91-4.43.98-6.33-5.42-1.74-5.91Z"/>
      <path class="cls-2" d="M584.77,680.55c-.54-.22-1.08-.43-1.62-.63.54.21,1.08.42,1.62.63Z"/>
      <path class="cls-2" d="M576.51,677.28c.78.33,1.57.66,2.37.98-.81-.32-1.6-.65-2.37-.98Z"/>
      <path class="cls-2" d="M522.48,1047.48c1.75-.93,3.49-1.93,5.23-2.99-1.74,1.06-3.48,2.07-5.23,2.99Z"/>
      <path class="cls-2" d="M517.21,1050.07c1.77-.8,3.52-1.66,5.27-2.58-1.75.93-3.5,1.79-5.27,2.58Z"/>
      <path class="cls-2" d="M511.89,1052.24c1.78-.66,3.56-1.38,5.32-2.17-1.76.8-3.54,1.52-5.32,2.17Z"/>
      <path class="cls-2" d="M495.52,1056.15c5.58-.63,11.02-1.95,16.37-3.91-5.35,1.96-10.79,3.29-16.37,3.91Z"/>
      <path class="cls-2" d="M474.71,1055.3c7.18,1.35,14.09,1.6,20.81.85-6.72.76-13.64.51-20.81-.85Z"/>
    </g>
  </g>
</svg>