<?xml version="1.0" encoding="UTF-8"?>
<svg id="_全体" data-name="全体" xmlns="http://www.w3.org/2000/svg" viewBox="0 0 1080 1350">
  <defs>
    <style>
      .cls-1 {
        fill: #fdfbfb;
      }

      .cls-2 {
        fill: #fd3517;
      }

      .cls-3 {
        fill: #fff;
      }

      .cls-4 {
        fill: #fd3719;
      }

      .cls-5 {
        fill: #aaa6a5;
      }
    </style>
  </defs>
  <g id="_オロチたち" data-name=" オロチたち">
    <path class="cls-1" d="M225.4,735.28c-1.43-.56-10.4-4.14-10.52-4.71-.51-2.38,3.39-7.27,5.56-7.97,6.83-2.21,5.96,8.67,4.96,12.67Z"/>
    <g>
      <g>
        <path class="cls-1" d="M579.41,1100.7c-.28,0-1.15,0-1.58-.64-.18-.26-.33-.7-.08-1.33.21-.52,1.32-1.53,5.93-5.42,1.29-1.09,2.51-2.11,2.92-2.51,25.07-23.92,38.31-43.16,36.43-76.3-1.13-19.99-8.05-30.65-23.13-35.67l-.51-.17c-1.59-.54-4.26-1.44-6.29-1.44-1.24,0-1.88.32-2.22.73.72.13,1.51.26,2.33.4,3.04.5,6.49,1.07,8.71,2.14.65.31,1.62.79,1.34,2.3l-.1.52-.51.13c-6.54,1.65-13.21,4.37-18.78,7.65-9.71,5.73-16.84,14.64-23.74,23.25-3.27,4.09-6.66,8.31-10.29,12.16-17.63,18.71-37.21,28.61-56.63,28.61-13.98,0-27.52-5.15-40.22-15.31-21.22-16.97-35.39-44.25-37.91-72.97-2.21-25.23,4.88-48.58,19.96-65.74,9.2-10.47,22.2-19.52,34.77-28.28,19.74-13.76,40.15-27.98,47.94-48.53.25-.65.43-1.67.61-2.65.24-1.33.45-2.48.85-3.12.5-.79,1.42-.95,2.23-1.1.51-.09,1.04-.18,1.26-.4.28-.28.45-1.09.59-1.82.24-1.2.51-2.56,1.51-3.34l.81-.63,2.12,4.41.02.06c.26.88.49,3.37.83,7.38.2,2.3.46,5.35.66,6.47.11,0,.24,0,.38,0,.17,0,.32,0,.44,0,.39-2.41-1.25-14.38-1.9-16.96-3.13-12.52-11.32-21.63-20-31.28-8.83-9.82-17.96-19.98-21.18-34.01-.73-3.18-1.04-6.43-1.34-9.56-.27-2.83-.55-5.76-1.14-8.6l-.23-1.1,1.12.11c1.7.16,2.73,1.04,3.63,1.81.82.7,1.46,1.25,2.49,1.25.36,0,.77-.07,1.22-.2.86-.28,7.63-4.89,8.85-5.96,2.91-2.55,3.92-5.08,3-7.51-1.61-4.27-8.73-7.25-14.13-7.25-.69,0-1.35.05-1.96.14l-1.32.2.41-1.27c5.71-17.9,14.59-30.46,26.38-37.35,6.65-3.88,13.82-5.85,21.3-5.85,8.77,0,18.09,2.69,27.69,8l.4.22c3.39,1.87,6.65,3.75,7.63,4.9,1.5,1.78.27,3.59-.63,4.91-.35.51-.68.99-.85,1.42-1.17,2.94-.56,6.11,1.64,8.48,1.49,1.61,7.79,5.02,11.29,5.02h0c.89,0,1.49-.22,1.79-.65.18-.26,0-1.13-.12-1.77-.26-1.36-.7-3.64,1.59-4.19l.48-.11.33.37c1.96,2.22,4.04,4.4,6.06,6.51,3.3,3.46,6.71,7.04,9.72,10.89,7.41,9.5,9.2,13.8,10.66,25.57,3.02,24.47,1.6,50.62-4,73.62-6.66,27.38-19.03,49.11-35.77,62.84-9.52,7.81-21.6,14.99-34.39,22.59-17.68,10.51-35.97,21.38-46.47,33.85-3.6,4.28-9.51,17.86-9.54,23.07-.03,5.65,4.55,21.84,8.98,25.05,1.03.75,2.73,1.62,4.12,1.62.74,0,1.25-.24,1.58-.77-7.53-2.04-9.79-10.52-10.9-17.79l-.13-.83.83-.12c.19-.03.37-.04.55-.04,1.28,0,2.32.63,3.23,1.19.54.33,1.04.64,1.54.79,2.61.79,11.31,1.33,17.5,1.33,2.47,0,4.39-.09,5.4-.25,2.63-.41,7.34-3.95,11.49-7.07,2.57-1.93,5-3.76,6.84-4.78,13.89-7.74,31.46-12,49.49-12,32.37,0,59.79,13.16,73.35,35.21,8.85,14.39,10.97,31.68,6.12,49.99-6.84,25.82-27.5,51.99-51.42,65.1-5.58,3.06-25.34,12.04-30.99,12.26-.05,0-.12,0-.2.02-.21.02-.47.04-.74.04ZM543.37,714.48c-.08,0-.1.01-.1.01-.02.02-.08.15-.09.47,0,.97,3.43,5.01,5.27,7.18,1.45,1.7,2.69,3.17,3.27,4.09,6.17,9.69,7.88,24.97,8.25,29.43.1,1.23.05,2.73-.01,4.33-.14,3.57-.31,8.02,1.53,9.93.6.63,1.41.97,2.44,1.03v-38.14c0-1.31-4.28-12.49-5.41-14.44-.57-.99-2.34-3.15-3.09-3.43,0,.02-.01.03-.02.05.23.58,1.25,2.44,2.02,3.82,1.01,1.83,1.96,3.55,2.23,4.29,3.95,10.57,3.53,23.3,3.16,34.53l-.09,2.89-1.23-.79c-1.06-.68-1.09-1.66-1.11-2.3,0-.18,0-.36-.04-.54-.49-3-.71-5.89-.93-8.69-.46-5.81-.89-11.3-3.49-17.18-1.49-3.36-7.85-12.85-10.58-15.45-.61-.58-1.53-1.07-2-1.07Z"/>
        <path class="cls-5" d="M525.95,662.86c3.77-.59,17.43-.63,21.15,0,2.32.39,8.48,3.23,10.9,4.37,19.23,9.07,37.03,25.71,49.17,43.02,1.63,2.32,6.03,8.25,6.77,10.54,1.26,3.89,1.87,13.12,2.28,17.59,3.39,37.08,1,82.97-20.25,114.72-11.99,17.91-34.2,32.6-52.41,43.85-13.34,8.23-48.73,26.05-53.35,40.87-1.14,3.66-.37,5.99-.83,9.35s-4.5,7.59.08,10.19c3.64,2.07,20.76,3.44,25.05,2.72,4.47-.75,11.37-8.05,15.7-10.79,22.72-14.4,62.36-17.36,87.97-10.65,18.43,4.83,41.91,30.43,47.31,48.44,10.29,34.33-15.42,78.78-42.98,98.32-15.78,11.19-35.03,14.91-52.95,21.37-.99-.07-2.61-.7-1.97-1.93.47-.9,6.43-4.57,7.92-5.84,12.36-10.43,30.95-30.79,37.61-45.41,7.9-17.37,11.67-49.03-.52-65.04-1.04-1.37-3.55-4.36-5.25-4.46-3.02-.19-17.4,7-20.59,9-15.56,9.75-23.19,26.2-36.44,38.43-22.65,20.9-47.15,32.09-78.07,21.52-57.55-19.68-77.05-99.04-43.82-147.5,23.14-33.75,80.45-49.71,90.62-91.2,5.31-21.64-10-24.98-21.15-39.08-19.77-25-21.52-57.96-5.66-85.53,6.36-11.06,20.68-24.83,33.74-26.86ZM570.57,694.65c-2.39-2.58-3.1-6.11-1.8-9.35.7-1.74,3.18-3.65,1.62-5.49-1.08-1.28-6.05-3.97-7.8-4.94-15.44-8.54-32.26-11.45-48.17-2.16-13.48,7.87-21.4,22.42-26.01,36.88,8.94-1.36,24.41,6.72,13.76,16.06-1.13.99-8.08,5.8-9.15,6.13-3.95,1.21-4.3-2.5-7.66-2.82,1.25,6.01,1.1,12.13,2.48,18.15,6.22,27.14,34.68,39.34,41.17,65.28.62,2.46,2.73,16.93,1.68,17.93-.07.07-1.96.07-2.03,0-.51-.51-1.12-12.58-1.66-14.39l-1.65-3.43c-1.4,1.09-1,4.1-2.03,5.1-.86.83-2.79.43-3.36,1.34s-.79,4.05-1.39,5.62c-12.92,34.11-59.46,50.45-82.86,77.06-34.89,39.68-21.61,105.97,17.85,137.52,33.35,26.67,68.73,15.44,95.73-13.22,11.27-11.96,19.74-27.02,34.21-35.56,5.73-3.38,12.54-6.11,19-7.74.16-.85-.19-1.07-.88-1.4-2.98-1.44-8.49-1.96-11.84-2.67.88-4,7.71-1.42,10.45-.51,17.53,5.83,22.7,18.93,23.69,36.41,1.98,34.83-12.87,54.23-36.68,76.94-1.23,1.18-8.38,6.95-8.66,7.64-.45,1.12,1.32.79,1.79.78,5.5-.22,25.12-9.14,30.63-12.16,36.54-20.04,69.71-73.75,44.99-113.94-23.59-38.36-84.85-43.47-121.74-22.92-4.82,2.69-14.1,11.24-18.61,11.95-4,.63-19.44.04-23.27-1.11-1.62-.49-2.99-2.19-4.96-1.91,1.06,6.9,3.25,15.83,11.2,17.32-.88,3.61-5.05,2.04-7.29.41-4.83-3.5-9.36-19.98-9.32-25.72s6.04-19.22,9.74-23.6c17.98-21.35,57.93-37.65,80.96-56.55,36.53-29.96,44.96-91.2,39.48-135.72-1.46-11.84-3.26-15.91-10.49-25.17-4.82-6.17-10.56-11.51-15.74-17.36-2.55.6-.06,4.26-.98,5.62-2.18,3.21-12.3-2.05-14.36-4.27ZM582.11,692.28c1.51-7.08-14.69-12.36-8.76-2.7,2.11,3.45,5.19,2.65,8.76,2.7ZM498.58,724.88c.83-3.31,1.55-12.3-4.1-10.47-1.8.58-5.02,4.62-4.6,6.58.1.47,7.51,3.43,8.7,3.89Z"/>
        <path class="cls-1" d="M570.55,694.68c2.07,2.23,12.19,7.48,14.36,4.27.92-1.36-1.56-5.01.98-5.62,5.18,5.86,10.93,11.19,15.74,17.36,7.22,9.26,9.03,13.32,10.49,25.17,5.49,44.53-2.94,105.76-39.48,135.72-23.04,18.89-62.98,35.2-80.96,56.55-3.69,4.38-9.71,18.07-9.74,23.6-.03,5.75,4.49,22.22,9.32,25.72,2.25,1.63,6.42,3.2,7.29-.41-7.95-1.49-10.14-10.43-11.2-17.32,1.97-.28,3.34,1.43,4.96,1.91,3.83,1.15,19.27,1.74,23.27,1.11,4.51-.71,13.79-9.26,18.61-11.95,36.89-20.55,98.14-15.44,121.74,22.92,24.72,40.19-8.45,93.9-44.99,113.94-5.51,3.02-25.13,11.94-30.63,12.16-.47.02-2.25.35-1.79-.78.28-.69,7.43-6.46,8.66-7.64,23.81-22.71,38.66-42.11,36.68-76.94-.99-17.48-6.17-30.58-23.69-36.41-2.73-.91-9.56-3.48-10.45.51,3.35.71,8.86,1.23,11.84,2.67.7.34,1.05.55.88,1.4-6.46,1.63-13.26,4.36-19,7.74-14.47,8.54-22.94,23.6-34.21,35.56-27,28.66-62.38,39.89-95.73,13.22-39.46-31.55-52.73-97.84-17.85-137.52,23.39-26.61,69.94-42.96,82.86-77.06.6-1.57.79-4.67,1.39-5.62s2.51-.52,3.36-1.34c1.03-1,.63-4.01,2.03-5.1l1.65,3.43c.54,1.81,1.15,13.88,1.66,14.39.07.07,1.96.07,2.03,0,1.05-1-1.06-15.47-1.68-17.93-6.49-25.94-34.94-38.14-41.17-65.28-1.38-6.01-1.22-12.14-2.48-18.15,3.37.32,3.71,4.03,7.66,2.82,1.07-.33,8.02-5.14,9.15-6.13,10.65-9.34-4.82-17.41-13.76-16.06,4.62-14.46,12.53-29.02,26.01-36.88,15.91-9.29,32.73-6.38,48.17,2.16,1.75.97,6.71,3.66,7.8,4.94,1.56,1.84-.92,3.75-1.62,5.49-1.29,3.24-.59,6.77,1.8,9.35ZM564.77,771.77v-38.97c0-1.63-4.42-12.96-5.52-14.86-.42-.72-4.11-5.94-4.67-2.96-.09.46,3.78,6.94,4.32,8.4,4.06,10.87,3.43,24.22,3.06,35.65-.94-.6-.64-1.44-.78-2.28-1.47-9.1-.53-17.16-4.48-26.08-1.55-3.51-8.05-13.13-10.77-15.72-1.1-1.05-3.56-2.31-3.59,0-.03,1.96,7.13,9.3,8.68,11.72,4.95,7.78,7.35,19.9,8.13,29.05.45,5.26-2.24,16.49,5.61,16.04Z"/>
      </g>
      <g>
        <path class="cls-2" d="M564.77,732.8v38.97c-7.85.45-5.17-10.78-5.61-16.04-.78-9.15-3.18-21.27-8.12-29.05-1.4-2.21-7.41-8.43-8.5-11.03l-.07-.09c-3.44-4.71-7.51-8.82-12.11-12.21-.45-.33-.62-.88-.45-1.42.17-.51.63-.86,1.14-.86.13,0,.26.02.39.07.17-.1.36-.15.57-.15.13,0,.26.02.39.07,2.02.67,4.04,1.43,6.01,2.27,5.86,2.51,11.39,5.83,16.45,9.83.12,0,.25,0,.36-.02.34.28.68.55,1.01.84.12.11.15.24.12.36l.88.71-.3.02c1.05,1.02,2.09,2.52,2.31,2.88,1.09,1.89,5.52,13.23,5.52,14.86Z"/>
        <path class="cls-5" d="M559.25,717.94c-.21-.36-1.26-1.86-2.31-2.88l.3-.02-.88-.71c.03-.12,0-.26-.12-.36-.33-.29-.67-.56-1.01-.84-.12,0-.24.02-.36.02-5.07-4-10.59-7.31-16.45-9.83-1.97-.84-3.98-1.6-6.01-2.27-.12-.04-.26-.07-.39-.07-.21,0-.4.05-.57.15-.12-.04-.26-.07-.39-.07-.51,0-.97.35-1.14.86-.17.54,0,1.09.45,1.42,4.59,3.4,8.67,7.5,12.11,12.21l.07.09c1.08,2.6,7.09,8.83,8.5,11.03,4.94,7.78,7.35,19.9,8.12,29.05.45,5.26-2.24,16.5,5.61,16.04v-38.97c0-1.63-4.43-12.97-5.52-14.86ZM561.97,759.03c-.93-.6-.64-1.44-.78-2.28-1.47-9.1-.54-17.16-4.48-26.07-1.55-3.51-8.05-13.13-10.77-15.72-.42-.4-1.03-.81-1.64-1.06-2.32-3.15-4.93-6.07-7.81-8.69,5.13,2.11,9.98,4.82,14.48,8.07.74.54,1.5,1.12,2.31,1.77l.25.2s.6-.03,1.08-.07c.4,1.17,3.78,6.85,4.28,8.21,4.07,10.87,3.43,24.21,3.07,35.64Z"/>
      </g>
      <g>
        <path class="cls-4" d="M582.21,687.4c-1.09-1.35-2.53-3.14-5.09-3.96-.89-.29-2.94-.94-5.09.03-.46.21-1.68.83-2.52,2.16-1.87,2.93-.2,6.55-.04,6.9,1.02,2.13,2.99,3.28,7.09,5.25,2.26,1.08,4.63,2.26,6.33,1.38.61-.31.93-.81,1.2-1.19,1.34-1.9.97-4.2.81-5.17-.42-2.58-1.78-4.27-2.7-5.41ZM574.06,688.02c.34-1.02,1.08-1.68,2.28-1.66.83.01,1.8.72,2.46,1.25.83.67.74,1.29.54,2.02-.32,1.17-1.74,1.61-2.26,1.58-.51-.03-.13-.01-.13-.01-.67-.19-1.42-.42-1.89-.81-.77-.64-1.33-1.35-.99-2.37Z"/>
        <path class="cls-3" d="M580.68,689.05c.15,2.13-1.65,4.18-3.74,3.68-2.08-.5-3.98-2.22-4.25-4.23s.92-3.48,2.85-3.34c1.93.14,4.98,1.75,5.13,3.88Z"/>
      </g>
      <g>
        <path class="cls-4" d="M499.83,725.18c1.96-3.1,1.34-7.14.58-9.65-.91-3.01-2.84-3.45-5.57-3.68-2.35-.2-4.55.98-6.18,3.2-1.86,2.53-1.47,5.31-1.4,8.38s.09,6.37,3.08,6.64c3.89.35,8.14-2.75,9.5-4.88ZM494.46,717.14c1.01-.13,1.89.24,2.39,1.28.35.73.17,1.87,0,2.67-.21,1-.78,1.18-1.49,1.32-1.13.21-2.12-.84-2.31-1.3-.19-.46-.05-.12-.05-.12-.13-.66-.26-1.41-.13-1.99.21-.94.58-1.73,1.59-1.86Z"/>
        <path class="cls-3" d="M496.44,723.34c-1.75,1.03-4.27.32-4.74-1.71-.47-2.03.17-4.41,1.76-5.48s3.35-.66,4.06,1.08c.71,1.74.66,5.08-1.09,6.1Z"/>
      </g>
    </g>
  </g>
</svg>