<?xml version="1.0" encoding="UTF-8"?>
<svg id="_全体" data-name="全体" xmlns="http://www.w3.org/2000/svg" viewBox="0 0 1080 1350">
  <defs>
    <style>
      .cls-1 {
        fill: #ff1800;
      }

      .cls-2 {
        fill: #fdfbfb;
      }

      .cls-3 {
        fill: #aaa6a5;
      }
    </style>
  </defs>
  <g id="_オロチたち" data-name=" オロチたち">
    <g>
      <path class="cls-2" d="M618.54,997.95c-14.08-25.73,7.38-45.38,12.35-69.19,3.19-15.29,1.46-40.21-6.62-53.88-17.34-29.31-81.38-23.69-107.13-9.32-5.69,3.17-13.54,11.17-19.32,12.48-4.48,1.02-18.97-.05-23.83-.95-.91-.17-2.09-.72-2.35-1.29-.97.14-1.92.46-2.87.73.92,5.03,3.1,9.59,7.02,12.86,1.77,1.47,7.63,3.65,2.64,5.24-6.57,2.1-11.66-9.23-12.91-14.26-10.89-43.82,39.85-62.95,69.15-81.24,38.95-24.32,66.92-51.34,48.92-100.99-16.11-44.44-53.71-67.84-101.19-60.8-15.24,2.26-14.66,7.16-25.2,14.94-7.96,5.88-32.64,18.66-36.76,25.8-1.31,2.26-2.53,7.07-3.28,9.75-1.16,4.12-4.5,17.57-3.32,21.05.35,1.03,2.68,1.12,3.85,1.89,2.45,1.63,3.18,6.17,6.8,6.75,5.27.86,8.37-2.58,12.84-3.78,6.74-1.81,2.98,2.56-.61,4.61-4.46,2.54-12.8,5.28-17.18,1.52-2.06-1.77-2.39-5.76-5.25-7,1.33,14.11,8.74,31.81,24.29,34.36,14.52,2.38,30.68-2.9,43.31-9.76,7.33-3.99,21.94-11.68,12.11-21.15-4.66-4.49-8.16-2.11-13.22-2.39-1.61-.09-5.56-.74-4.22-2.65.46-.65,6.61-1.07,7.87-1.04,14.83.39,17.55,10.84,16.39,23.74-2.35,26.21-54.81,52.95-73.51,69.36-39.18,34.39-42.21,97.36-9.36,137.14,34.46,41.74,79.75,37.6,116,.8,13.23-13.43,20.07-30.29,38.48-38.17,2.49-1.06,13.81-4.23,14.83-5.24,2.75-2.74-3.54-12.79-5.87-15-1.49-1.41-7.81-4.22-8.04-5.55.95-3.66,5.63.04,7.5,1.39,11.79,8.51,11.72,25.01,10.17,38.31-3.57,30.68-29.35,51.61-9.39,83.97,16.71,27.1,43.34,39.4,73.87,25.37l14.25-6.87h-21.12c-7.74,0-26.28-14.6-30.08-21.54Z"/>
      <path class="cls-3" d="M587.36,901.64c-26.73,4.7-37.82,31.67-56.3,48.24-28.87,25.89-61.3,34.32-95.69,11.74-48.78-32.03-58.85-107.06-20.33-151.25,18.6-21.33,74.05-47.41,81.23-72.59.61-2.16,1.99-6.23-.14-7.71-2.47,5.33-9.19,9.28-14.25,12.08-27.84,15.4-64.18,13.9-70.07-23.44-9.34-59.18,54.5-94.44,106.31-83.91,35.11,7.13,59.16,31.58,69.92,65.13,23.53,73.4-42.91,92.88-89.99,126.18-8.28,5.86-19.6,14.06-24.43,23.02-6.11,11.36-8.94,31,2.17,40.25,1.77,1.47,7.63,3.65,2.64,5.24-6.57,2.1-11.66-9.23-12.91-14.26-10.89-43.82,39.85-62.95,69.15-81.24,38.95-24.32,66.92-51.34,48.92-100.99-16.11-44.44-53.71-67.84-101.19-60.8-15.24,2.26-14.66,7.16-25.2,14.94-7.96,5.88-32.64,18.66-36.76,25.8-1.31,2.26-2.53,7.07-3.28,9.75-1.16,4.12-4.5,17.57-3.32,21.05.35,1.03,2.68,1.12,3.85,1.89,2.45,1.63,3.18,6.17,6.8,6.75,5.27.86,8.37-2.58,12.84-3.78,6.74-1.81,2.98,2.56-.61,4.61-4.46,2.54-12.8,5.28-17.18,1.52-2.06-1.77-2.39-5.76-5.25-7,1.33,14.11,8.74,31.81,24.29,34.36,14.52,2.38,30.68-2.9,43.31-9.76,7.33-3.99,21.94-11.68,12.11-21.15-4.66-4.49-8.16-2.11-13.22-2.39-1.61-.09-5.56-.74-4.22-2.65.46-.65,6.61-1.07,7.87-1.04,14.83.39,17.55,10.84,16.39,23.74-2.35,26.21-54.81,52.95-73.51,69.36-39.18,34.39-42.21,97.36-9.36,137.14,34.46,41.74,79.75,37.6,116,.8,13.23-13.43,20.07-30.29,38.48-38.17,2.49-1.06,13.81-4.23,14.83-5.24,2.75-2.74-3.54-12.79-5.87-15-1.49-1.41-7.81-4.22-8.04-5.55.95-3.66,5.63.04,7.5,1.39,11.79,8.51,11.72,25.01,10.17,38.31-3.57,30.68-29.35,51.61-9.39,83.97,16.71,27.1,43.34,39.4,73.87,25.37l14.25-6.87h-21.12c-7.74,0-26.28-14.6-30.08-21.54-14.08-25.73,7.38-45.38,12.35-69.19,3.19-15.29,1.46-40.21-6.62-53.88-17.34-29.31-81.38-23.69-107.13-9.32-5.69,3.17-13.54,11.17-19.32,12.48-4.48,1.02-18.97-.05-23.83-.95-1.52-.28-3.77-1.62-1.35-2.32,7.85-2.24,16.71,2.45,24.63.11,5.4-1.6,11.74-8.66,16.93-11.74,27.52-16.34,89.8-21.3,111.43,6.72,12.62,16.36,13.32,49.66,7.23,68.68-6.02,18.83-21.04,33.32-11.71,54.7,7.49,17.18,30.96,24.03,48.31,22.58,3.68-.31,8.41-2.12,12-2.12,1.16,0,7.41.81,7.04,2.38-10.92,5.16-22.21,10.9-33.62,14.88-28.87,10.08-48.1,6.25-68.32-16.69-17.65-20.03-19.66-41.18-9.88-65.69,2.25-5.64,10.67-21.94,10.67-26.87v-20.08Z"/>
      <path class="cls-1" d="M466,641.69c-.61-.99-9.16,2.89-15.99,6.9-15.43,9.07-26.24,21.31-25.56,22.11.2.24,1.33-.68,7.88-4.84,12.09-7.69,13.74-8.06,19.88-12.36,5.39-3.77,14.47-10.73,13.79-11.82Z"/>
    </g>
  </g>
</svg>