<?xml version="1.0" encoding="UTF-8"?>
<svg id="_全体" data-name="全体" xmlns="http://www.w3.org/2000/svg" viewBox="0 0 1080 1350">
  <defs>
    <style>
      .cls-1 {
        fill: none;
      }

      .cls-2 {
        fill: #fdfbfb;
      }

      .cls-3 {
        fill: #fff;
      }

      .cls-4 {
        fill: #fd3719;
      }

      .cls-5 {
        fill: red;
      }

      .cls-6 {
        fill: #aaa6a5;
      }
    </style>
  </defs>
  <g id="_オロチたち" data-name=" オロチたち">
    <path class="cls-2" d="M500.99,937.43c.22-.89.38-1.8.53-2.72-.04.16-.09.31-.13.47-.23.9-.35,1.62-.4,2.25Z"/>
    <g>
      <path class="cls-1" d="M537.47,751.84c-3.42,0-7.02,2.05-8.75,4.99-.97,1.65-1.78,4.28-.06,7.37,1.24,2.23,4.69,3.67,8.79,3.67,3.32,0,6.17-.97,7.44-2.52,1.04-1.27.18-8.13-.98-9.95-1.89-2.94-4.55-3.56-6.44-3.56Z"/>
      <path class="cls-5" d="M544.28,681.86c-4,1.9-7.25,3.75-9.66,5.21-4.06,2.47-8.37,5.18-13.06,9.61-.41.39-1.73,1.8-4.38,4.61-.86.91-3.24,3.44-6,6.62-.86.99-1.93,2.26-3.12,4.09-.59.91-1.04,1.7-1.34,2.25,5.3-2.72,10.8-5.78,16.42-9.23,12.95-7.93,23.99-16.28,33.25-24.27-2.03-1.68-3.71-1.8-4.49-1.78-.59.02-1.19.14-3.47,1.06-1.74.7-3.16,1.35-4.15,1.82Z"/>
      <path class="cls-2" d="M493.67,916.18c34.64-31.13,95.11-47.05,112.67-94.78,5.77-15.68,8.7-33.1,10.3-49.7-4.88,4.24-6.58,10.98-10.32,16.02-.95,1.28-3.63,5.37-4.28,2.26,14.72-24.75,30.22-44.37,12.44-72.87-8.72-13.97-33.49-33.02-49.52-36.82-6.93-1.64-5.3.27-8.57,3.72-4.37,4.62-13.8,11.84-19.18,15.58-3.72,2.59-7.71,5.23-11.97,7.01-7.39,3.94-20.26,10.78-20.92,10.91-.12.02-.25.02-.25.02-.48,0-.93-.25-1.17-.67-.24-.4-.24-.89,0-1.3,1.75-3.15,3.72-6.19,5.84-9.05,2.39-3.22,1.74-2.47,4.19-5.32,2.97-3.47,5.51-5.85,7.28-7.49,2.56-2.38,3.91-3.64,6.07-5.22,2.95-2.16,5.56-3.6,8.64-5.25,2.09-1.12,3.83-2,5.03-2.58,3.31-1.54,6.61-3.08,9.92-4.62-1.73-.29-4.09-.62-6.91-.8-28.36-1.84-65.96,13.65-76.72,44.6-17.04,49.07,32.58,78.53,75.22,62.75,7.45-2.76,12.5-8.05,19.81-10.33,1.92,2.01-4.69,6.18-6.12,7.18-9.37,6.53-20.34,11.41-31.91,12.08-4.05,11.85-7.18,25.04-13.46,35.96-.66,1.14-5.23,8.64-6.61,7.24l-.27-2.17c-23.71,29.25-64.62,40.54-83.45,74.58-19.4,35.07-13.52,79.77,8.66,112.09,22.33,32.54,58.38,47.95,95.51,28.49,20.23-10.6,31.27-29.06,46.05-45.18,10.19-11.11,22.55-19.71,37.74-22.26.21-.97-.29-1.07-.9-1.54-2.76-2.1-13.78-2.62-14.3-3.35-1.24-1.73,3.28-1.66,4.06-1.61,36.96,2.35,37.34,47.09,29.45,73.97-7.42,25.25-27.52,38.23-44.37,56.64-.23,1.18.53.83,1.34.8,5.17-.17,30.33-11.04,35.95-14.02,32.67-17.29,67.98-76.83,49.68-112.88-3.05-6.01-14.51-22.02-19.63-25.99-3.46-2.68-3.22-1.18-6.23-1.36-2.22-.13-8.18-5.95-10.43-7.5-23.43-16.16-74.48-10.73-98.47,2.89-5.09,2.89-14.87,11.96-19.84,12.74-4.53.71-18.56-.15-23.19-1.18-2.34-.52-4.39-2.29-6.91-2.04,2.05,8.04,3.59,15.86,12.49,18.73-8.4,7.06-14.94-10.31-15.7-16.34-.29-2.31.48-6.89-.11-8.58-.36-1.04-1.98-.81-2.42-1.4-.96-1.29,1.8-4.38,2.38-5.84,4.35-11.03,3.65-17.42,13.43-26.21ZM544.89,765.34c-1.28,1.56-4.13,2.52-7.44,2.52-4.1,0-7.55-1.44-8.79-3.67-1.72-3.1-.92-5.72.06-7.37,1.73-2.94,5.33-4.99,8.75-4.99,1.89,0,4.55.62,6.44,3.56,1.17,1.81,2.03,8.67.98,9.95Z"/>
      <path class="cls-6" d="M638.53,940.16c-27.09-17.59-84.15-11.96-110.47,5.53-4.18,2.77-11.26,9.89-15.98,10.63-4.57.72-20-1.03-24.56-2.52-7.47-2.43-2.18-7.24-1.77-11.36.22-2.16-.23-3.16-.08-5.02-.54,2.22-1.44,4.32-3.5,6.2-.17.16-.36.32-.55.49-.88.78-2.72,2.42-2.5,3.07.03.09.24.18.58.31.47.19,1.12.45,1.7,1.04,1.42,1.44,1.11,3.44.79,5.54-.17,1.12-.36,2.38-.34,3.72.05,2.62,1.09,4.66,3.18,8.73l.25.49c2.27,4.43,4.06,7.92,6.59,8.09.07,0,.14,0,.2,0,.6,0,1.22-.18,1.87-.54-7.58-3.25-9.41-10.52-11.19-17.57l-.52-2.07.88-.2c.79-.18,1.59-.28,2.37-.28.43,0,.85.03,1.27.08,1.47.19,2.47.66,3.44,1.12.34.16.68.32,1.05.47,1.5.62,2.62.71,5.08.9l.7.06c4.23.35,7.11.69,9.22.94,1.94.23,3.23.38,4.25.38.93,0,1.68-.12,2.65-.44,1.16-.38,1.57-.67,3.55-2.09.75-.53,1.71-1.22,2.99-2.11.07-.05,3.55-2.3,13.09-8.45,7.3-4.71,27.88-13.61,53.49-13.61,1.43,0,2.87.03,4.29.08,11.75.45,19.35,1.35,22.29,1.99,6.84,1.48,13.53,3.76,19.87,6.77,4.99,1.82,7.85,4.1,8.67,6.95.04.12.07.27.11.42.17.68.43,1.7,1,1.94.08.03.16.05.25.05.19,0,.42-.06.7-.14.42-.11.94-.25,1.59-.25.15,0,.3,0,.46.02.93.1,1.89.6,3.43,1.79,5.23,4.06,16.69,20.01,19.87,26.29,8.37,16.49,6.29,39.92-5.72,64.27-10.83,21.98-27.82,41.06-44.33,49.79-4.94,2.62-30.78,13.93-36.33,14.12-.13,0-.26.02-.38.03-.18.02-.36.04-.51.04-.48,0-.85-.16-1.1-.46-.38-.46-.32-1.05-.25-1.46l.05-.25.17-.18c4.39-4.8,9.04-9.27,13.53-13.59,12.96-12.46,25.21-24.23,30.64-42.71,7.72-26.26,3.51-48.96-4.08-59.8-5.58-7.97-13.84-12.35-24.57-13.03-.13,0-.36-.02-.65-.02-1.06,0-1.81.1-2.26.21.74.16,2.03.34,3.2.51,3.86.55,8.66,1.24,10.54,2.68.09.07.18.13.27.19.5.34,1.26.86.96,2.24l-.1.47-.45.17c-14.46,5.31-26.48,12.93-35.72,22.63-3.46,3.63-5.17,6.09-7.15,8.95-2.08,2.99-4.43,6.38-9.33,11.76-7.83,8.6-16.71,18.35-31.11,25.44-5.13,2.53-17.15,8.44-33.67,8.44-1.48,0-2.97-.05-4.45-.14-21.47-1.39-35.59-12.26-40.23-15.84-10.31-7.94-15.82-16.33-19.84-22.47-2.42-3.68-8.07-12.3-12.67-24.27-5.42-14.09-7.84-28.69-7.19-43.4.28-6.25,1.11-25.29,12.33-45.51,9.68-17.46,25.35-33.03,46.56-46.29l1.14-.71c3.28-2.03,8.78-5.43,15.91-10.76,7.03-5.26,13.76-10.99,20-17.03,2.31-1.98,4.4-4.16,6.23-6.51.91-1.17,2.27-3.04,3.53-5.26,2.45-4.32,3.41-8.02,4.34-11.61.16-.62.32-1.23.48-1.84,1.39-5.16,3.26-10.38,5.55-15.53l.22-.49.54-.03c10.23-.59,21.1-4.71,31.46-11.92l.47-.32c2.31-1.57,3.92-2.85,4.8-3.84-5.39,4.37-11.33,7.84-17.7,10.32-8.34,3.25-16.82,4.9-25.19,4.9-9.18,0-17.83-2.02-25.71-6.01-12.58-6.37-21.3-15.43-25.91-26.93-3.17-7.91-5.74-20.8-.01-37.28,4.74-13.65,14.65-25.24,28.64-33.54,12.88-7.64,28.32-11.84,43.47-11.84,4.46,0,8.84.37,13.04,1.1,5.03,1.33,9.94,2.74,14.67,4.19,3.76,1.16,5.87,1.86,8.45,3,1.51.66,3.52,1.6,8.28,4.39,5.73,3.36,9.03,5.51,10.79,6.73,5.44,3.76,15.57,10.77,23.02,23.04,3.07,5.06,7.71,12.7,8.36,23.37.47,7.67-1.25,15.14-2.92,22.37-.73,3.17-1.59,6.34-2.56,9.44,1.21,18.42-1.88,35.74-9.18,51.46-7.15,15.4-16.57,25.03-22.19,30.78-18.57,19-43.56,34.01-63.64,46.08-11.71,7.04-21.83,13.11-27.9,18.33-2.35,2.02-4.21,3.62-5.91,6.36-2.21,3.58-2.75,6.85-3.23,9.74-.02.13-.04.26-.07.39,3.46-12.32,17.37-21.02,27.43-27.9,50.01-34.21,96.58-48.39,105.12-117.53,1.04-8.4.62-19.13,2.27-27.05.6-2.85,2.79-6.31,3.78-9.26,8.9-26.53-17.31-54.14-38.2-66.63-15.05-9-26.19-14.05-44.08-15.11-40.17-2.38-82.51,22.82-84.97,65.99-2.01,35.19,30.4,54.37,61.9,55.12-8.78,55.64-74.83,66.19-101.23,109.74-29.63,48.89-11.61,126.61,42.22,150.49,36.08,16,63.96,2.72,91.85-20.75,16.69-14.05,19.18-30.24,39.02-41.35,3.67-2.06,15.58-8.41,19.11-8.62,3.68-.22,6.16,3.27,8.08,6.05,8.69,12.58,8.85,32.71,6.04,47.22-5.6,28.93-26.36,51.42-48.36,69.48-1.21,1-6.07,4.08-6.52,4.88-.76,1.35,2.15,2.71,3.22,2.73,24.29-8.35,49.54-14.63,68.22-33.38,41.3-41.43,52.41-102.99-2.56-138.67Z"/>
      <path class="cls-6" d="M489.49,924.58c1.7-2.75,3.56-4.34,5.91-6.36,6.08-5.22,16.19-11.3,27.9-18.33,20.08-12.07,45.07-27.08,63.64-46.08,5.62-5.75,15.04-15.38,22.19-30.78,7.3-15.72,10.39-33.03,9.18-51.46.97-3.1,1.84-6.28,2.56-9.44,1.67-7.23,3.39-14.7,2.92-22.37-.65-10.67-5.29-18.31-8.36-23.37-7.45-12.27-17.57-19.27-23.02-23.04-1.76-1.22-5.06-3.37-10.79-6.73-4.76-2.79-6.77-3.73-8.28-4.39-2.58-1.13-4.69-1.84-8.45-3-4.73-1.45-9.64-2.86-14.67-4.19-4.2-.73-8.59-1.1-13.04-1.1-15.15,0-30.58,4.21-43.47,11.84-14,8.3-23.9,19.9-28.64,33.54-5.73,16.48-3.15,29.37.01,37.28,4.61,11.5,13.32,20.57,25.91,26.93,7.88,3.99,16.53,6.01,25.71,6.01,8.37,0,16.85-1.65,25.19-4.9,6.37-2.48,12.31-5.95,17.7-10.32-.89.99-2.49,2.27-4.8,3.84l-.47.32c-10.35,7.21-21.23,11.33-31.46,11.92l-.54.03-.22.49c-2.29,5.14-4.16,10.36-5.55,15.53-.16.61-.32,1.23-.48,1.84-.93,3.59-1.89,7.29-4.34,11.61-1.26,2.22-2.62,4.09-3.53,5.26-1.84,2.35-3.92,4.53-6.23,6.51-6.23,6.04-12.96,11.77-20,17.03-7.13,5.33-12.63,8.73-15.91,10.76l-1.14.71c-21.21,13.25-36.88,28.83-46.56,46.29-11.21,20.22-12.05,39.25-12.33,45.51-.65,14.71,1.77,29.31,7.19,43.4,4.6,11.96,10.26,20.59,12.67,24.27,4.02,6.13,9.53,14.53,19.84,22.47,4.64,3.57,18.76,14.44,40.23,15.84,1.48.1,2.97.14,4.45.14,16.53,0,28.54-5.92,33.67-8.44,14.4-7.09,23.28-16.84,31.11-25.44,4.9-5.38,7.25-8.77,9.33-11.76,1.98-2.85,3.69-5.31,7.15-8.95,9.24-9.71,21.26-17.32,35.72-22.63l.45-.17.1-.47c.3-1.38-.45-1.9-.96-2.24-.08-.06-.18-.12-.27-.19-1.88-1.44-6.69-2.12-10.54-2.68-1.17-.17-2.46-.35-3.2-.51.45-.11,1.2-.21,2.26-.21.29,0,.53,0,.65.02,10.73.68,19,5.07,24.57,13.03,7.59,10.84,11.8,33.54,4.08,59.8-5.43,18.47-17.67,30.25-30.64,42.71-4.5,4.32-9.14,8.79-13.53,13.59l-.17.18-.05.25c-.08.4-.14,1,.25,1.46.25.31.62.46,1.1.46.15,0,.33-.02.51-.04.12-.01.25-.03.38-.03,5.55-.19,31.39-11.5,36.33-14.12,16.51-8.74,33.5-27.82,44.33-49.79,12-24.36,14.09-47.78,5.72-64.27-3.18-6.28-14.64-22.23-19.87-26.29-1.54-1.19-2.5-1.69-3.43-1.79-.16-.02-.32-.02-.46-.02-.65,0-1.17.14-1.59.25-.28.07-.51.14-.7.14-.09,0-.17-.02-.25-.05-.57-.24-.83-1.26-1-1.94-.04-.15-.07-.29-.11-.42-.81-2.85-3.67-5.13-8.67-6.95-6.35-3.02-13.03-5.3-19.87-6.77-2.94-.63-10.53-1.53-22.29-1.99-1.42-.05-2.87-.08-4.29-.08-25.61,0-46.19,8.9-53.49,13.61-9.54,6.15-13.02,8.4-13.09,8.45-1.28.89-2.24,1.57-2.99,2.11-1.98,1.42-2.39,1.71-3.55,2.09-.97.32-1.72.44-2.65.44-1.03,0-2.31-.15-4.25-.38-2.11-.25-4.99-.59-9.22-.94l-.7-.06c-2.46-.2-3.58-.29-5.08-.9-.37-.15-.71-.32-1.05-.47-.97-.46-1.97-.93-3.44-1.12-.42-.05-.85-.08-1.27-.08-.78,0-1.58.09-2.37.28l-.88.2.52,2.07c1.78,7.05,3.61,14.32,11.19,17.57-.64.36-1.27.54-1.87.54-.07,0-.13,0-.2,0-2.53-.17-4.32-3.67-6.59-8.09l-.25-.49c-2.09-4.07-3.13-6.11-3.18-8.73-.02-1.33.17-2.6.34-3.72.32-2.11.63-4.1-.79-5.54-.58-.59-1.23-.85-1.7-1.04-.34-.14-.55-.22-.58-.31-.22-.66,1.61-2.29,2.5-3.07.19-.17.38-.33.55-.49,2.07-1.88,2.96-3.98,3.5-6.2.05-.63.16-1.35.4-2.25.04-.16.09-.31.13-.47.02-.13.04-.26.07-.39.48-2.89,1.02-6.16,3.23-9.74ZM551.9,678.98c.78-.03,2.46.1,4.49,1.78-9.26,7.98-20.3,16.34-33.25,24.27-5.62,3.44-11.12,6.5-16.42,9.23.3-.55.74-1.33,1.34-2.25,1.19-1.83,2.26-3.1,3.12-4.09,2.75-3.18,5.14-5.71,6-6.62,2.65-2.81,3.97-4.22,4.38-4.61,4.69-4.43,9-7.14,13.06-9.61,2.41-1.47,5.67-3.31,9.66-5.21.99-.47,2.41-1.11,4.15-1.82,2.28-.92,2.87-1.04,3.47-1.06ZM480.23,942.39c-.58,1.46-3.34,4.56-2.38,5.84.44.59,2.06.36,2.42,1.4.59,1.68-.18,6.27.11,8.58.76,6.03,7.3,23.4,15.7,16.34-8.89-2.87-10.44-10.69-12.49-18.73,2.52-.25,4.57,1.52,6.91,2.04,4.63,1.03,18.66,1.89,23.19,1.18,4.97-.78,14.75-9.85,19.84-12.74,24-13.61,75.04-19.05,98.47-2.89,2.25,1.55,8.21,7.37,10.43,7.5,3.02.18,2.77-1.32,6.23,1.36,5.12,3.97,16.58,19.98,19.63,25.99,18.3,36.06-17.01,95.6-49.68,112.88-5.62,2.97-30.78,13.84-35.95,14.02-.82.03-1.57.37-1.34-.8,16.84-18.42,36.95-31.39,44.37-56.64,7.89-26.87,7.51-71.62-29.45-73.97-.78-.05-5.3-.12-4.06,1.61.52.73,11.54,1.25,14.3,3.35.61.47,1.11.57.9,1.54-15.19,2.55-27.55,11.15-37.74,22.26-14.78,16.11-25.82,34.57-46.05,45.18-37.13,19.46-73.18,4.06-95.51-28.49-22.18-32.32-28.06-77.02-8.66-112.09,18.83-34.04,59.74-45.33,83.45-74.58l.27,2.17c1.37,1.4,5.95-6.1,6.61-7.24,6.28-10.92,9.41-24.11,13.46-35.96,11.57-.66,22.53-5.55,31.91-12.08,1.44-1,8.04-5.17,6.12-7.18-7.3,2.28-12.35,7.57-19.81,10.33-42.64,15.78-92.27-13.68-75.22-62.75,10.75-30.96,48.36-46.44,76.72-44.6,2.82.18,5.19.51,6.91.8-3.31,1.54-6.61,3.08-9.92,4.62-1.19.58-2.94,1.46-5.03,2.58-3.07,1.65-5.69,3.09-8.64,5.25-2.16,1.58-3.5,2.83-6.07,5.22-1.77,1.65-4.31,4.02-7.28,7.49-2.44,2.85-1.79,2.1-4.19,5.32-2.13,2.86-4.09,5.91-5.84,9.05-.23.42-.23.9,0,1.3.24.41.69.67,1.17.67,0,0,.13,0,.25-.02.67-.13,13.53-6.97,20.92-10.91,4.26-1.78,8.25-4.42,11.97-7.01,5.38-3.74,14.81-10.96,19.18-15.58,3.27-3.46,1.64-5.36,8.57-3.72,16.04,3.8,40.81,22.85,49.52,36.82,17.78,28.5,2.28,48.11-12.44,72.87.65,3.11,3.33-.98,4.28-2.26,3.74-5.04,5.44-11.77,10.32-16.02-1.6,16.6-4.53,34.02-10.3,49.7-17.55,47.72-78.02,63.64-112.67,94.78-9.79,8.79-9.08,15.18-13.43,26.21Z"/>
      <path class="cls-4" d="M544.86,754.72c-1.73-2.69-4.42-4.17-7.58-4.17-3.77,0-7.59,2.18-9.5,5.42-1.64,2.79-1.67,5.9-.08,8.76,1.81,3.26,6.13,4.42,9.57,4.42s6.62-1.15,8.2-3.07c2.05-2.5.59-9.5-.6-11.36ZM533.38,759.18c.54-1.36,1.98-2.43,3.28-2.43.9,0,1.68.54,2.31,1.6.8,1.34.53,2.39.16,3.04-.58,1.03-1.76,1.72-2.93,1.72h0c-.75,0-1.43-.28-2.02-.84-.98-.92-1.25-1.96-.8-3.09Z"/>
      <circle class="cls-3" cx="536.33" cy="759.85" r="4.69"/>
    </g>
  </g>
</svg>